<?xml version="1.0" standalone="no"?>
<!DOCTYPE svg PUBLIC "-//W3C//DTD SVG 20010904//EN"
 "http://www.w3.org/TR/2001/REC-SVG-20010904/DTD/svg10.dtd">
<svg version="1.0" xmlns="http://www.w3.org/2000/svg"
 width="182.000000pt" height="182.000000pt" viewBox="0 0 182.000000 182.000000"
 preserveAspectRatio="xMidYMid meet">
<metadata>
Created by potrace 1.14, written by Peter Selinger 2001-2017
</metadata>
<g transform="translate(0.000000,182.000000) scale(0.100000,-0.100000)"
fill="#000000" stroke="none">
<path d="M945 1783 c-147 -19 -332 -126 -394 -227 -28 -45 -73 -217 -74 -285
-1 -46 4 -63 26 -96 15 -22 27 -47 27 -57 0 -10 -21 -57 -47 -105 -42 -80 -46
-95 -51 -173 -3 -70 0 -96 17 -145 33 -90 33 -89 -19 -87 -27 2 -81 -9 -137
-27 l-91 -28 -22 29 c-43 59 -108 59 -97 0 4 -19 -1 -26 -24 -34 -32 -11 -39
-41 -12 -56 15 -9 14 -12 -5 -37 -41 -52 -16 -110 28 -70 19 17 20 17 20 -1 0
-27 15 -47 37 -49 10 -1 30 -8 45 -15 21 -10 34 -10 55 -2 15 6 46 14 68 18
22 4 53 13 69 21 16 8 40 13 54 10 14 -3 53 -1 86 4 33 4 62 6 64 4 2 -2 -10
-16 -27 -31 -70 -62 -87 -149 -39 -209 25 -32 30 -71 10 -87 -7 -6 -18 -20
-23 -30 -10 -18 10 -18 586 -18 377 0 595 4 595 10 0 6 -4 10 -9 10 -13 0 -20
25 -14 48 3 14 17 22 46 26 52 9 127 41 127 56 0 6 -22 -1 -48 -14 -26 -13
-66 -28 -87 -32 l-39 -7 17 27 c10 15 15 32 11 38 -4 7 -3 8 4 4 7 -4 14 7 18
31 4 21 9 32 11 26 6 -16 25 -16 74 -1 l39 11 0 202 c0 196 -1 202 -22 222
-38 34 -110 66 -154 67 l-41 1 39 70 c52 97 47 104 -11 14 -69 -105 -190 -217
-282 -263 -206 -101 -448 -120 -651 -50 -107 38 -165 84 -207 167 -32 62 -34
72 -33 158 1 82 5 96 33 145 17 30 37 81 44 112 13 56 13 58 -16 103 -34 53
-35 86 -11 199 l17 75 85 1 c90 2 158 -16 212 -56 15 -11 33 -20 40 -20 6 0
55 42 107 94 88 86 102 96 165 115 38 12 72 19 75 16 3 -4 4 -37 2 -75 -2 -63
-1 -71 23 -95 l26 -26 -44 6 c-77 12 -181 -50 -217 -130 -22 -48 -23 -65 -6
-89 20 -27 47 -14 90 43 49 64 115 94 192 88 48 -5 54 -3 59 16 3 12 -1 29
-11 39 -13 14 -13 18 -2 17 37 -2 52 -19 79 -86 15 -39 36 -83 48 -97 l20 -26
18 28 c27 42 99 107 133 122 40 16 81 6 81 -21 0 -11 -9 -37 -20 -59 -32 -63
-27 -84 36 -145 46 -44 56 -59 52 -79 -3 -14 -1 -23 3 -20 5 3 9 19 9 35 0 24
-12 42 -55 84 -60 57 -60 57 -20 135 21 41 19 63 -9 89 -17 16 -30 20 -49 16
-24 -6 -26 -3 -42 52 -27 93 -64 152 -138 215 -79 68 -162 112 -249 133 -58
13 -200 18 -273 8z m-773 -1220 l28 -42 35 15 c19 8 48 14 64 14 16 0 31 5 33
11 2 6 41 13 90 16 l86 6 46 -39 c25 -22 45 -44 46 -51 0 -6 -9 -31 -19 -56
l-19 -44 -85 -6 c-47 -4 -113 -14 -147 -23 -34 -8 -68 -13 -75 -10 -7 2 -16
-2 -19 -10 -6 -16 -66 -19 -66 -3 0 6 9 13 19 16 41 11 31 57 -10 51 -18 -2
-25 -10 -27 -30 -2 -19 -9 -28 -22 -28 -25 0 -31 23 -14 55 8 15 14 29 14 31
0 12 -24 0 -55 -27 -28 -25 -36 -28 -41 -16 -9 25 15 58 57 76 l40 18 -40 7
c-22 3 -43 11 -47 17 -11 19 18 30 61 24 l40 -6 -29 30 c-15 16 -25 34 -21 41
13 22 50 5 77 -37z m1238 -46 c-13 -17 -66 -80 -119 -139 -105 -120 -85 -109
-286 -142 -280 -45 -349 -46 -404 -7 -32 23 -33 24 -26 83 8 70 30 157 43 170
5 5 41 -3 88 -19 75 -27 88 -28 249 -27 156 0 177 2 260 28 49 15 116 42 150
60 33 17 62 31 64 29 3 -2 -6 -18 -19 -36z m-1210 -127 c0 -12 -28 -25 -36
-17 -9 9 6 27 22 27 8 0 14 -5 14 -10z"/>
<path d="M592 1269 c-38 -28 -42 -35 -42 -75 0 -49 15 -57 44 -25 10 11 31 25
47 31 33 14 75 2 105 -31 20 -22 67 -25 83 -5 10 11 9 21 -2 43 -25 47 -60 72
-116 83 -73 14 -72 14 -119 -21z"/>
<path d="M1559 1251 c-24 -24 -39 -48 -39 -62 1 -22 3 -21 32 14 17 21 40 42
51 48 18 10 19 9 14 -10 -7 -29 9 -27 29 4 38 57 -31 63 -87 6z"/>
<path d="M250 1217 c0 -38 -5 -53 -25 -71 -21 -19 -23 -25 -10 -29 8 -4 14 -3
13 1 -2 4 8 22 21 39 21 27 27 31 40 20 14 -10 14 -10 4 4 -7 8 -19 31 -27 50
l-15 34 -1 -48z"/>
<path d="M1163 1200 c-48 -25 -103 -82 -103 -107 0 -13 10 -7 38 19 67 65 119
80 212 64 l45 -8 -22 23 c-32 33 -114 37 -170 9z"/>
<path d="M1610 1125 c0 -42 3 -56 10 -45 5 8 10 29 10 45 0 17 -5 37 -10 45
-7 11 -10 -3 -10 -45z"/>
<path d="M1245 1151 c-3 -12 -4 -29 -1 -39 5 -14 -3 -20 -38 -30 -24 -6 -57
-23 -73 -37 l-28 -26 44 23 c58 29 135 35 185 14 30 -12 36 -13 27 -2 -6 8
-24 19 -40 26 -24 10 -28 17 -27 48 1 31 -3 38 -21 40 -14 2 -23 -3 -28 -17z
m35 -21 c0 -5 -4 -10 -10 -10 -5 0 -10 5 -10 10 0 6 5 10 10 10 6 0 10 -4 10
-10z"/>
<path d="M650 1114 c-31 -23 -49 -45 -50 -63 0 -7 13 1 29 18 21 23 38 31 63
31 46 0 66 -14 49 -34 -7 -9 -11 -26 -7 -39 5 -20 1 -23 -27 -25 -18 -2 -49
-14 -69 -27 -47 -31 -51 -44 -5 -16 43 27 104 36 153 22 35 -9 37 -9 20 4 -11
8 -26 15 -33 15 -11 0 -11 4 -1 23 7 12 17 25 22 28 13 10 0 36 -27 54 -39 25
-88 29 -117 9z m120 -69 c0 -8 -4 -15 -10 -15 -5 0 -10 7 -10 15 0 8 5 15 10
15 6 0 10 -7 10 -15z"/>
<path d="M281 1103 c-8 -15 -11 -15 -28 -3 -16 13 -17 13 -6 -1 7 -8 17 -33
22 -55 l9 -39 1 38 c1 21 6 47 11 58 13 23 5 26 -9 2z"/>
<path d="M1749 995 c-3 -2 -29 -10 -58 -18 l-52 -13 34 -11 c30 -9 38 -8 63
12 16 13 26 26 23 29 -3 3 -8 4 -10 1z"/>
<path d="M191 946 c-1 -11 -11 -30 -23 -43 -12 -13 -17 -23 -12 -23 21 0 51
46 43 66 -8 19 -8 19 -8 0z"/>
<path d="M865 918 c-4 -11 -18 -18 -35 -18 -16 0 -35 -3 -44 -6 -24 -9 -21
-75 5 -108 28 -35 45 -34 19 2 -11 15 -22 41 -23 57 -2 27 1 30 36 36 43 7 62
21 54 41 -3 10 -7 8 -12 -4z"/>
<path d="M1270 881 c-14 -5 -80 -36 -147 -70 -177 -89 -242 -110 -331 -103
-60 4 -76 2 -92 -13 -47 -42 -13 -122 67 -162 43 -20 72 -26 155 -30 121 -6
205 10 307 59 123 59 230 196 205 265 -17 48 -97 74 -164 54z m118 -31 c38
-23 41 -46 12 -106 -43 -88 -167 -174 -301 -209 -89 -24 -268 -18 -323 10 -63
32 -98 95 -72 130 12 16 25 19 93 16 100 -2 158 16 346 110 152 75 189 83 245
49z"/>
<path d="M1257 777 c3 -5 -8 -22 -23 -39 l-29 -31 32 19 c32 18 33 18 47 -1
15 -19 15 -19 9 3 -3 14 1 30 12 42 16 18 16 19 -18 17 -19 -1 -33 -6 -30 -10z"/>
<path d="M200 855 c-6 -8 -10 -21 -8 -31 2 -11 7 -6 15 15 13 34 11 38 -7 16z"/>
</g>
</svg>
